<svg width="900" height="1200" viewBox="0 0 900 1200" fill="none" xmlns="http://www.w3.org/2000/svg">
  <defs>
    <linearGradient id="bg" x1="0" y1="0" x2="1" y2="1">
      <stop offset="0" stop-color="#2f3c30"/>
      <stop offset="1" stop-color="#1f2820"/>
    </linearGradient>
  </defs>
  <rect width="900" height="1200" fill="url(#bg)"/>
  <g opacity="0.26" stroke="#a8bb9f" stroke-width="2">
    <path d="M-40 180 C 160 80, 320 240, 520 170 C 680 120, 780 210, 940 120"/>
    <path d="M-30 310 C 190 220, 330 360, 520 300 C 730 230, 820 360, 930 320"/>
    <path d="M-20 450 C 180 370, 330 520, 530 460 C 690 410, 790 510, 940 430"/>
    <path d="M-20 620 C 180 540, 340 700, 530 650 C 700 600, 810 690, 940 620"/>
    <path d="M-30 790 C 180 720, 320 860, 530 810 C 720 770, 840 860, 950 800"/>
    <path d="M-20 960 C 180 900, 320 1030, 530 980 C 700 940, 830 1030, 950 980"/>
  </g>
  <g opacity="0.34" stroke="#f5f0e6" stroke-width="5" stroke-dasharray="11 11">
    <path d="M140 980 C 190 900, 260 830, 380 790 C 520 740, 600 620, 690 470 C 730 400, 760 340, 810 280"/>
    <circle cx="380" cy="790" r="24" fill="none"/>
    <circle cx="690" cy="470" r="24" fill="none"/>
  </g>
  <g opacity="0.18" fill="#f5f0e6">
    <circle cx="690" cy="220" r="120"/>
    <circle cx="690" cy="220" r="80" fill="#2f3c30"/>
    <path d="M690 108 L718 220 L690 190 L662 220 Z"/>
  </g>
  <g opacity="0.3" fill="#afc6a4">
    <path d="M100 1200 L150 1040 L200 1200 Z"/>
    <path d="M180 1200 L230 1010 L280 1200 Z"/>
    <path d="M260 1200 L315 1060 L370 1200 Z"/>
  </g>
</svg>
